<svg width="332" height="132" viewBox="0 0 332 132" fill="none" xmlns="http://www.w3.org/2000/svg">
<path d="M13 33V99H29.891V48.6398H43.6541V99H60.2323V48.6398H74.3082V99H90.8864V33H13Z" fill="#1E2A63"/>
<path d="M199.741 33V57.7109H182.537V33H165.959V99H182.537V73.3507H199.741V99H216.319V33H199.741Z" fill="#1E2A63"/>
<path d="M246.033 83.9858V33H229.455V99H266.991V83.9858H246.033Z" fill="#1E2A63"/>
<path d="M318.603 47.7014V33H286.698H276.062V99H286.698H318.603V84.2986H292.641V73.3507H318.603V58.6493H292.641V47.7014H318.603Z" fill="#1E2A63"/>
<path d="M103.398 33V99H120.289V82.7346H136.555V99H153.133V33H103.398ZM120.289 67.0948V48.327H136.555V67.0948H120.289Z" fill="#1E2A63"/>
</svg>
